<svg viewBox="0 0 512 512" xmlns="http://www.w3.org/2000/svg" xmlns:xlink="http://www.w3.org/1999/xlink"><linearGradient id="a" gradientTransform="matrix(1 0 0 -1 0 -15870)" gradientUnits="userSpaceOnUse" x1="0" x2="512" y1="-16126" y2="-16126"><stop offset="0" stop-color="#00f38d"/><stop offset="1" stop-color="#009eff"/></linearGradient><path d="m512 256c0 141.386719-114.613281 256-256 256s-256-114.613281-256-256 114.613281-256 256-256 256 114.613281 256 256zm0 0" fill="url(#a)"/><path d="m402.140625 109.578125v1.410156c-9.628906 11.195313-23.191406 23.042969-61.074219 23.042969-17.367187 0-33.519531 5.5-45.484375 15.488281-13.191406 11.011719-20.460937 26.757813-20.460937 44.339844 0 8.222656 1.441406 14.730469 3.632812 19.882813-3.890625 3.09375-7.667968 6.425781-11.242187 10.003906-16.851563-102.589844-87.882813-114.847656-120.710938-114.847656-36.359375 0-65.941406 29.582031-65.941406 65.941406 0 36.363281 29.582031 65.945312 65.941406 65.945312 23.253907 0 42.171875-18.917968 42.171875-42.171875 0-23.25-18.917968-42.167969-42.171875-42.167969v30c6.710938 0 12.171875 5.457032 12.171875 12.167969 0 6.710938-5.460937 12.171875-12.171875 12.171875-19.816406 0-35.941406-16.125-35.941406-35.945312 0-19.816406 16.125-35.941406 35.941406-35.941406 43.046875 0 94.359375 23.085937 94.359375 133.074218v10.8125h-52.925781v30h18.964844v97.753906c0 27 21.960937 48.964844 48.960937 48.964844 26.996094 0 48.960938-21.964844 48.960938-48.964844v-97.753906h18.964844v-30h-52.925782c.023438-17.847656 10.203125-32.1875 23.386719-43.398437 9.902344 14.691406 27.246094 26.53125 47.875 26.53125 36.855469 0 63.75-19.890625 77.777344-57.515625 10.535156-28.257813 11.898437-61.109375 11.9375-83.753906 0-.023438.003906-.046876.003906-.070313v-15zm-97.019531 84.28125c0-20.496094 18.632812-29.828125 35.945312-29.828125 14.78125 0 27.015625-1.585938 37.300782-4.253906-9.96875 7.054687-24.011719 14.730468-43.75 22.953125l-.550782.230469c-6.636718 2.761718-17.195312 7.164062-28.851562 13.492187-.058594-.800781-.09375-1.660156-.09375-2.59375zm-30 216.679687c0 10.457032-8.503906 18.964844-18.960938 18.964844-10.457031 0-18.960937-8.507812-18.960937-18.964844v-97.753906h37.921875zm67.304687-174.621093c-9.746093 0-18.207031-6.363281-22.902343-13.171875 10.191406-5.472656 19.757812-9.460938 26.078124-12.09375l.554688-.226563c20.816406-8.675781 37.398438-17.496093 50.238281-26.722656-1.183593 4.871094-2.597656 9.648437-4.304687 14.21875-9.664063 25.921875-25.445313 37.996094-49.664063 37.996094zm0 0" fill="#fff"/></svg>