<?xml version="1.0" encoding="iso-8859-1"?>
<!-- Generator: Adobe Illustrator 19.0.0, SVG Export Plug-In . SVG Version: 6.00 Build 0)  -->
<svg version="1.1" id="Capa_1" xmlns="http://www.w3.org/2000/svg" xmlns:xlink="http://www.w3.org/1999/xlink" x="0px" y="0px"
	 viewBox="0 0 512 512" style="enable-background:new 0 0 512 512;" xml:space="preserve">
<path style="fill:#87D2F3;" d="M64,394.667c-29.455,0-53.333,23.878-53.333,53.333V64c0-29.455,23.878-53.333,53.333-53.333h10.667
	v384H64z"/>
<g>
	<path style="fill:#FFFFFF;" d="M138.667,160h234.667v42.667H138.667V160z"/>
	<path style="fill:#FFFFFF;" d="M138.667,74.667h234.667V128H138.667V74.667z"/>
	<path style="fill:#FFFFFF;" d="M437.333,448v53.333H64c-29.455,0-53.333-23.878-53.333-53.333S34.545,394.667,64,394.667h373.333
		V448z"/>
</g>
<g>
	<path style="fill:#87D2F3;" d="M138.667,160v42.667h234.667V160H138.667z M373.333,128V74.667H138.667V128H373.333z
		 M437.333,10.667v384H74.667v-384H437.333z"/>
	<circle style="fill:#87D2F3;" cx="352" cy="96" r="21.333"/>
</g>
<path style="fill:#FFFFFF;" d="M352,10.667c82.475,0,149.333,66.859,149.333,149.333S434.475,309.333,352,309.333
	S202.667,242.475,202.667,160S269.525,10.667,352,10.667z M373.333,96c0-11.782-9.551-21.333-21.333-21.333
	S330.667,84.218,330.667,96s9.551,21.333,21.333,21.333C363.768,117.298,373.298,107.767,373.333,96z"/>
<g>
	<path style="fill:#2170A6;" d="M170.667,85.333V64h-32C132.776,64,128,68.776,128,74.667V128h21.333V85.333H170.667z"/>
	<path style="fill:#2170A6;" d="M170.667,192h-21.333v-21.333h21.333v-21.333H128v53.333c0,5.891,4.776,10.667,10.667,10.667h32V192
		z"/>
	<path style="fill:#2170A6;" d="M128,245.333h21.333v21.333H128V245.333z"/>
	<path style="fill:#2170A6;" d="M170.667,245.333H192v21.333h-21.333V245.333z"/>
	<path style="fill:#2170A6;" d="M96,437.333h21.333v21.333H96V437.333z"/>
	<path style="fill:#2170A6;" d="M426.667,384H85.333V21.333h128V0H64C28.668,0.035,0.035,28.668,0,64v384
		c0.035,35.332,28.668,63.965,64,64h373.333c5.891,0,10.667-4.776,10.667-10.667v-160h-21.333V384z M64,21.333V384
		c-15.765,0.004-30.969,5.858-42.667,16.427V64C21.333,40.436,40.436,21.333,64,21.333z M64,490.667
		c-23.564,0-42.667-19.103-42.667-42.667c0-23.564,19.103-42.667,42.667-42.667h362.667v32h-288v21.333h288v32H64z"/>
	<path style="fill:#2170A6;" d="M352,0c-88.366,0-160,71.634-160,160s71.634,160,160,160s160-71.634,160-160
		C511.9,71.676,440.324,0.1,352,0z M352,298.667c-76.583,0-138.667-62.083-138.667-138.667S275.417,21.333,352,21.333
		S490.667,83.417,490.667,160C490.578,236.547,428.547,298.578,352,298.667z"/>
	<path style="fill:#2170A6;" d="M352,128c17.673,0,32-14.327,32-32s-14.327-32-32-32s-32,14.327-32,32S334.327,128,352,128z
		 M352,85.333c5.891,0,10.667,4.776,10.667,10.667c0,5.891-4.776,10.667-10.667,10.667c-5.891,0-10.667-4.776-10.667-10.667
		C341.333,90.109,346.109,85.333,352,85.333z"/>
	<path style="fill:#2170A6;" d="M362.667,160c0-5.891-4.776-10.667-10.667-10.667h-42.667v21.333h32v74.667
		c0,5.891,4.776,10.667,10.667,10.667h42.667v-21.333h-32V160z"/>
</g>
<g>
</g>
<g>
</g>
<g>
</g>
<g>
</g>
<g>
</g>
<g>
</g>
<g>
</g>
<g>
</g>
<g>
</g>
<g>
</g>
<g>
</g>
<g>
</g>
<g>
</g>
<g>
</g>
<g>
</g>
</svg>
